{"accessors" : [{"bufferView" : 0, "byteOffset" : 0, "componentType" : 5123, "count" : 2634, "type" : "SCALAR", "max" : [2235], "min" : [0]}, {"bufferView" : 1, "byteOffset" : 0, "componentType" : 5126, "count" : 2236, "type" : "VEC3", "max" : [91.63770294189453, 15.199999809265137, -81.97360229492188], "min" : [90.00569915771484, 12.958399772644043, -83.77739715576172], "name" : "POSITION"}, {"bufferView" : 1, "byteOffset" : 12, "componentType" : 5126, "count" : 2236, "type" : "VEC2", "max" : [0.9820650219917297, -0.009723009541630745], "min" : [0.009723000228404999, -0.9902769923210144], "name" : "TEXCOORD_0"}, {"bufferView" : 1, "byteOffset" : 20, "componentType" : 5126, "count" : 2236, "type" : "VEC3", "max" : [0.9917615056037903, 0.9969187378883362, 0.999508798122406], "min" : [-0.9917615056037903, -0.9262994527816772, -0.9999734163284302], "name" : "NORMAL"}], "asset" : {"generator" : "Aspose.3D 23.1", "version" : "2.0"}, "buffers" : [{"uri" : "data:application/octet-stream;base64,", "byteLength" : 89564}], "bufferViews" : [{"buffer" : 0, "byteOffset" : 0, "byteLength" : 5268, "target" : 34963}, {"buffer" : 0, "byteOffset" : 5272, "byteLength" : 84288, "byteStride" : 32, "target" : 34962}], "images" : [{"uri" : "data:image/png;base64,"}], "materials" : [{"name" : "ErdoganMaskGiver1Mtl", "pbrMetallicRoughness" : {"baseColorFactor" : [1, 1, 1, 1], "baseColorTexture" : {"index" : 0, "texCoord" : 0}, "metallicFactor" : 0, "roughnessFactor" : 0}, "emissiveFactor" : [0, 0, 0], "alphaMode" : "OPAQUE", "doubleSided" : false}], "meshes" : [{"primitives" : [{"attributes" : {"POSITION" : 1, "TEXCOORD_0" : 2, "NORMAL" : 3}, "indices" : 0, "material" : 0, "mode" : 4}], "name" : ""}], "nodes" : [{"mesh" : 0, "name" : "ErdoganMaskGiver1"}], "samplers" : [{"magFilter" : 9729, "minFilter" : 9729, "wrapS" : 10497, "wrapT" : 10497}], "scene" : 0, "scenes" : [{"nodes" : [0]}], "textures" : [{"sampler" : 0, "source" : 0, "name" : ""}]}