{"accessors" : [{"bufferView" : 0, "byteOffset" : 0, "componentType" : 5123, "count" : 144, "type" : "SCALAR", "max" : [119], "min" : [0]}, {"bufferView" : 1, "byteOffset" : 0, "componentType" : 5126, "count" : 120, "type" : "VEC3", "max" : [59.2135009765625, 14.917099952697754, 4.5258002281188965], "min" : [44.24959945678711, 11.884400367736816, 4.322000026702881], "name" : "POSITION"}, {"bufferView" : 1, "byteOffset" : 12, "componentType" : 5126, "count" : 120, "type" : "VEC2", "max" : [0.9954000115394592, -0.0005000000237487257], "min" : [0.0005000000237487257, -0.9994000196456909], "name" : "TEXCOORD_0"}, {"bufferView" : 1, "byteOffset" : 20, "componentType" : 5126, "count" : 120, "type" : "VEC3", "max" : [0.5773851275444031, 0.7087081074714661, 0.7087081074714661], "min" : [-0.5773851275444031, -0.7087081074714661, -1.0000017881393433], "name" : "NORMAL"}, {"bufferView" : 0, "byteOffset" : 288, "componentType" : 5123, "count" : 132, "type" : "SCALAR", "max" : [106], "min" : [0]}, {"bufferView" : 2, "byteOffset" : 0, "componentType" : 5126, "count" : 107, "type" : "VEC3", "max" : [28.373899459838867, 14.917099952697754, 4.5117998123168945], "min" : [13.40999984741211, 5.691100120544434, 4.294000148773193], "name" : "POSITION"}, {"bufferView" : 2, "byteOffset" : 12, "componentType" : 5126, "count" : 107, "type" : "VEC2", "max" : [0.9994999766349792, -0.0005000000237487257], "min" : [0.0005000000237487257, -0.9577999711036682], "name" : "TEXCOORD_0"}, {"bufferView" : 2, "byteOffset" : 20, "componentType" : 5126, "count" : 107, "type" : "VEC3", "max" : [0.7071089744567871, 0.7087081074714661, 0.7087081074714661], "min" : [-0.5773851275444031, -0.7087081074714661, -1.0000017881393433], "name" : "NORMAL"}, {"bufferView" : 0, "byteOffset" : 552, "componentType" : 5123, "count" : 36, "type" : "SCALAR", "max" : [29], "min" : [0]}, {"bufferView" : 3, "byteOffset" : 0, "componentType" : 5126, "count" : 30, "type" : "VEC3", "max" : [56.88240051269531, 5.270199775695801, 13.826800346374512], "min" : [16.025299072265625, 4.7266998291015625, 5.0503997802734375], "name" : "POSITION"}, {"bufferView" : 3, "byteOffset" : 12, "componentType" : 5126, "count" : 30, "type" : "VEC2", "max" : [0.9311000108718872, -0.02810000069439411], "min" : [0.046300001442432404, -0.9787999987602234], "name" : "TEXCOORD_0"}, {"bufferView" : 3, "byteOffset" : 20, "componentType" : 5126, "count" : 30, "type" : "VEC3", "max" : [0.5773851275444031, 0.5786850452423096, 0.5786850452423096], "min" : [-0.5773851275444031, -0.5786850452423096, -0.5786850452423096], "name" : "NORMAL"}, {"bufferView" : 0, "byteOffset" : 624, "componentType" : 5123, "count" : 13392, "type" : "SCALAR", "max" : [10734], "min" : [0]}, {"bufferView" : 4, "byteOffset" : 0, "componentType" : 5126, "count" : 10735, "type" : "VEC3", "max" : [55.82160186767578, 4.765999794006348, 12.702400207519531], "min" : [17.180400848388672, -0.053599998354911804, 5.992400169372559], "name" : "POSITION"}, {"bufferView" : 4, "byteOffset" : 12, "componentType" : 5126, "count" : 10735, "type" : "VEC2", "max" : [1, -0], "min" : [0, -1], "name" : "TEXCOORD_0"}, {"bufferView" : 4, "byteOffset" : 20, "componentType" : 5126, "count" : 10735, "type" : "VEC3", "max" : [0.9939677715301514, 0.7964985966682434, 0.9942179322242737], "min" : [-0.9939776062965393, -1.0000044107437134, -0.9937214255332947], "name" : "NORMAL"}, {"bufferView" : 0, "byteOffset" : 27408, "componentType" : 5123, "count" : 144, "type" : "SCALAR", "max" : [119], "min" : [0]}, {"bufferView" : 5, "byteOffset" : 0, "componentType" : 5126, "count" : 120, "type" : "VEC3", "max" : [59.2135009765625, 11.8125, 4.518700122833252], "min" : [44.24959945678711, 8.779899597167969, 4.314899921417236], "name" : "POSITION"}, {"bufferView" : 5, "byteOffset" : 12, "componentType" : 5126, "count" : 120, "type" : "VEC2", "max" : [0.9954000115394592, -0.0005000000237487257], "min" : [0.21359999477863312, -0.9994000196456909], "name" : "TEXCOORD_0"}, {"bufferView" : 5, "byteOffset" : 20, "componentType" : 5126, "count" : 120, "type" : "VEC3", "max" : [0.5773851275444031, 0.7087081074714661, 0.7087081074714661], "min" : [-0.5773851275444031, -0.7087081074714661, -1.0000017881393433], "name" : "NORMAL"}, {"bufferView" : 0, "byteOffset" : 27696, "componentType" : 5123, "count" : 144, "type" : "SCALAR", "max" : [119], "min" : [0]}, {"bufferView" : 6, "byteOffset" : 0, "componentType" : 5126, "count" : 120, "type" : "VEC3", "max" : [59.2135009765625, 8.695199966430664, 4.511600017547607], "min" : [44.24959945678711, 5.662499904632568, 4.307799816131592], "name" : "POSITION"}, {"bufferView" : 6, "byteOffset" : 12, "componentType" : 5126, "count" : 120, "type" : "VEC2", "max" : [0.9954000115394592, -0.0005000000237487257], "min" : [0.21359999477863312, -0.9994000196456909], "name" : "TEXCOORD_0"}, {"bufferView" : 6, "byteOffset" : 20, "componentType" : 5126, "count" : 120, "type" : "VEC3", "max" : [0.5773851275444031, 0.7087081074714661, 0.7087081074714661], "min" : [-0.5773851275444031, -0.7087081074714661, -1.0000017881393433], "name" : "NORMAL"}, {"bufferView" : 0, "byteOffset" : 27984, "componentType" : 5123, "count" : 687, "type" : "SCALAR", "max" : [546], "min" : [0]}, {"bufferView" : 7, "byteOffset" : 0, "componentType" : 5126, "count" : 547, "type" : "VEC3", "max" : [59.49769973754883, 15.253399848937988, 14.411199569702148], "min" : [13.145500183105469, 5.387800216674805, 4.230500221252441], "name" : "POSITION"}, {"bufferView" : 7, "byteOffset" : 12, "componentType" : 5126, "count" : 547, "type" : "VEC2", "max" : [1.0526000261306763, 0.8806999921798706], "min" : [-0.17649999260902405, -1.717900037765503], "name" : "TEXCOORD_0"}, {"bufferView" : 7, "byteOffset" : 20, "componentType" : 5126, "count" : 547, "type" : "VEC3", "max" : [0.7163071036338806, 0.7087081074714661, 0.7087081074714661], "min" : [-0.7162825465202332, -0.7087081074714661, -0.9052087068557739], "name" : "NORMAL"}], "asset" : {"generator" : "Aspose.3D 23.1", "version" : "2.0"}, "buffers" : [{"uri" : "data:application/octet-stream;base64,", "byteLength" : 499120}], "bufferViews" : [{"buffer" : 0, "byteOffset" : 0, "byteLength" : 29360, "target" : 34963}, {"buffer" : 0, "byteOffset" : 29364, "byteLength" : 4608, "byteStride" : 32, "target" : 34962}, {"buffer" : 0, "byteOffset" : 33976, "byteLength" : 4224, "byteStride" : 32, "target" : 34962}, {"buffer" : 0, "byteOffset" : 38204, "byteLength" : 1152, "byteStride" : 32, "target" : 34962}, {"buffer" : 0, "byteOffset" : 39360, "byteLength" : 428544, "byteStride" : 32, "target" : 34962}, {"buffer" : 0, "byteOffset" : 467908, "byteLength" : 4608, "byteStride" : 32, "target" : 34962}, {"buffer" : 0, "byteOffset" : 472520, "byteLength" : 4608, "byteStride" : 32, "target" : 34962}, {"buffer" : 0, "byteOffset" : 477132, "byteLength" : 21984, "byteStride" : 32, "target" : 34962}], "materials" : [{"name" : "wire_180180180", "pbrMetallicRoughness" : {"baseColorFactor" : [0.7059, 0.7059, 0.7059, 1], "metallicFactor" : 0, "roughnessFactor" : 0}, "emissiveFactor" : [0, 0, 0], "alphaMode" : "OPAQUE", "doubleSided" : false}, {"name" : "wire_180180180", "pbrMetallicRoughness" : {"baseColorFactor" : [0.7059, 0.7059, 0.7059, 1], "metallicFactor" : 0, "roughnessFactor" : 0}, "emissiveFactor" : [0, 0, 0], "alphaMode" : "OPAQUE", "doubleSided" : false}, {"name" : "wire_180180180", "pbrMetallicRoughness" : {"baseColorFactor" : [0.7059, 0.7059, 0.7059, 1], "metallicFactor" : 0, "roughnessFactor" : 0}, "emissiveFactor" : [0, 0, 0], "alphaMode" : "OPAQUE", "doubleSided" : false}, {"name" : "wire_180180180", "pbrMetallicRoughness" : {"baseColorFactor" : [0.7059, 0.7059, 0.7059, 1], "metallicFactor" : 0, "roughnessFactor" : 0}, "emissiveFactor" : [0, 0, 0], "alphaMode" : "OPAQUE", "doubleSided" : false}, {"name" : "wire_180180180", "pbrMetallicRoughness" : {"baseColorFactor" : [0.7059, 0.7059, 0.7059, 1], "metallicFactor" : 0, "roughnessFactor" : 0}, "emissiveFactor" : [0, 0, 0], "alphaMode" : "OPAQUE", "doubleSided" : false}, {"name" : "wire_180180180", "pbrMetallicRoughness" : {"baseColorFactor" : [0.7059, 0.7059, 0.7059, 1], "metallicFactor" : 0, "roughnessFactor" : 0}, "emissiveFactor" : [0, 0, 0], "alphaMode" : "OPAQUE", "doubleSided" : false}, {"name" : "wire_180180180", "pbrMetallicRoughness" : {"baseColorFactor" : [0.7059, 0.7059, 0.7059, 1], "metallicFactor" : 0, "roughnessFactor" : 0}, "emissiveFactor" : [0, 0, 0], "alphaMode" : "OPAQUE", "doubleSided" : false}], "meshes" : [{"primitives" : [{"attributes" : {"POSITION" : 1, "TEXCOORD_0" : 2, "NORMAL" : 3}, "indices" : 0, "material" : 0, "mode" : 4}], "name" : ""}, {"primitives" : [{"attributes" : {"POSITION" : 5, "TEXCOORD_0" : 6, "NORMAL" : 7}, "indices" : 4, "material" : 1, "mode" : 4}], "name" : ""}, {"primitives" : [{"attributes" : {"POSITION" : 9, "TEXCOORD_0" : 10, "NORMAL" : 11}, "indices" : 8, "material" : 2, "mode" : 4}], "name" : ""}, {"primitives" : [{"attributes" : {"POSITION" : 13, "TEXCOORD_0" : 14, "NORMAL" : 15}, "indices" : 12, "material" : 3, "mode" : 4}], "name" : ""}, {"primitives" : [{"attributes" : {"POSITION" : 17, "TEXCOORD_0" : 18, "NORMAL" : 19}, "indices" : 16, "material" : 4, "mode" : 4}], "name" : ""}, {"primitives" : [{"attributes" : {"POSITION" : 21, "TEXCOORD_0" : 22, "NORMAL" : 23}, "indices" : 20, "material" : 5, "mode" : 4}], "name" : ""}, {"primitives" : [{"attributes" : {"POSITION" : 25, "TEXCOORD_0" : 26, "NORMAL" : 27}, "indices" : 24, "material" : 6, "mode" : 4}], "name" : ""}], "nodes" : [{"mesh" : 0, "name" : "Box004"}, {"mesh" : 1, "name" : "Rectangle001"}, {"mesh" : 2, "name" : "Rectangle002"}, {"mesh" : 3, "name" : "Circle002"}, {"mesh" : 4, "name" : "Box005"}, {"mesh" : 5, "name" : "Box006"}, {"mesh" : 6, "name" : "Box001"}], "scene" : 0, "scenes" : [{"nodes" : [0, 1, 2, 3, 4, 5, 6]}]}